<svg width="32" height="32" viewBox="0 0 32 32" fill="none" xmlns="http://www.w3.org/2000/svg">
<g clip-path="url(#clip0_1_188)">
<path d="M19.8213 25.7933C19.9981 26.0996 20.046 26.4635 19.9545 26.8051C19.863 27.1466 19.6395 27.4378 19.3333 27.6147L17.6666 28.5773C17.1599 28.8699 16.5851 29.0239 16 29.0239C15.4149 29.0239 14.84 28.8699 14.3333 28.5773L12.6666 27.6133C12.3629 27.4353 12.1419 27.1443 12.0519 26.8039C11.9619 26.4635 12.0102 26.1013 12.1863 25.7964C12.3623 25.4915 12.6518 25.2686 12.9916 25.1763C13.3314 25.0841 13.6939 25.13 14 25.304L15.6666 26.2667C15.768 26.3252 15.883 26.356 16 26.356C16.117 26.356 16.232 26.3252 16.3333 26.2667L18 25.304C18.3062 25.1272 18.6702 25.0793 19.0117 25.1708C19.3533 25.2623 19.6445 25.4871 19.8213 25.7933ZM26.392 14.8253C26.7456 14.8253 27.0847 14.9658 27.3348 15.2158C27.5848 15.4659 27.7253 15.805 27.7253 16.1587V20.8453C27.7253 21.4304 27.5713 22.0052 27.2787 22.5119C26.9862 23.0187 26.5654 23.4394 26.0587 23.732L22 26.076C21.8483 26.1635 21.6808 26.2203 21.5071 26.2432C21.3334 26.266 21.157 26.2544 20.9878 26.209C20.8186 26.1636 20.66 26.0854 20.521 25.9787C20.3821 25.872 20.2655 25.739 20.178 25.5873C20.0904 25.4356 20.0336 25.2681 20.0108 25.0945C19.988 24.9208 19.9996 24.7443 20.045 24.5751C20.0903 24.4059 20.1686 24.2473 20.2753 24.1084C20.3819 23.9694 20.5149 23.8529 20.6666 23.7653L24.7253 21.4227C24.8267 21.3641 24.9108 21.28 24.9693 21.1786C25.0278 21.0773 25.0586 20.9623 25.0587 20.8453V16.1587C25.0587 15.805 25.1991 15.4659 25.4492 15.2158C25.6992 14.9658 26.0384 14.8253 26.392 14.8253ZM5.60798 14.8253C5.9616 14.8253 6.30074 14.9658 6.55079 15.2158C6.80084 15.4659 6.94132 15.805 6.94132 16.1587V20.8453C6.94132 20.9623 6.97212 21.0773 7.03064 21.1786C7.08915 21.28 7.17331 21.3641 7.27465 21.4227L11.3333 23.7653C11.6371 23.9434 11.858 24.2344 11.948 24.5748C12.038 24.9152 11.9897 25.2773 11.8137 25.5823C11.6376 25.8872 11.3481 26.1101 11.0083 26.2023C10.6685 26.2946 10.3061 26.2487 9.99998 26.0747L5.94132 23.7333C5.4346 23.4408 5.01381 23.02 4.72125 22.5133C4.42869 22.0066 4.27466 21.4318 4.27465 20.8467V16.16C4.27465 15.8064 4.41512 15.4672 4.66517 15.2172C4.91522 14.9671 5.25436 14.8253 5.60798 14.8253ZM20.8333 9.95199L20.9906 10.0293L23.0093 11.1733C23.1923 11.2772 23.3481 11.423 23.464 11.5986C23.5798 11.7743 23.6525 11.9749 23.676 12.184L23.684 12.344L23.6666 14.664C23.6649 14.8696 23.6156 15.0721 23.5226 15.2555C23.4296 15.4389 23.2955 15.5984 23.1306 15.7213L23 15.808L19.3333 17.924V22.16C19.3332 22.366 19.2853 22.5691 19.1935 22.7535C19.1016 22.9379 18.9683 23.0985 18.804 23.2227L18.6746 23.3107L16.6746 24.484C16.4962 24.5887 16.2958 24.6504 16.0894 24.6643C15.883 24.6782 15.6762 24.6438 15.4853 24.564L15.3253 24.484L13.3253 23.3107C13.1476 23.2063 12.9964 23.0622 12.8838 22.8896C12.7711 22.717 12.7 22.5207 12.676 22.316L12.6666 22.16V17.924L8.99998 15.808C8.82166 15.705 8.66963 15.562 8.55581 15.3904C8.44199 15.2187 8.36949 15.023 8.34398 14.8187L8.33332 14.6627L8.31598 12.3427C8.31461 12.1325 8.36294 11.925 8.45701 11.7371C8.55109 11.5492 8.68825 11.3861 8.85732 11.2613L8.99065 11.1733L11.008 10.0293C11.1843 9.92908 11.3811 9.87037 11.5835 9.85766C11.7859 9.84495 11.9885 9.87858 12.176 9.95599L12.3333 10.0333L16 12.1507L19.6666 10.0333C19.8423 9.93221 20.0386 9.87246 20.2407 9.8586C20.4429 9.84473 20.6456 9.87713 20.8333 9.95332V9.95199ZM20.34 12.7253L16.6666 14.8453C16.4899 14.9475 16.2921 15.0077 16.0885 15.0213C15.8848 15.035 15.6807 15.0017 15.492 14.924L15.332 14.844L11.6613 12.724L10.988 13.1067L10.9946 13.88L14.6666 16C14.8462 16.1037 14.9991 16.2478 15.1132 16.4209C15.2274 16.5941 15.2995 16.7914 15.324 16.9973L15.3333 17.1547V21.396L16 21.788L16.6666 21.396V17.1547C16.6666 16.9473 16.7149 16.7428 16.8077 16.5574C16.9005 16.372 17.0353 16.2108 17.2013 16.0867L17.3333 16L21.0053 13.88L21.012 13.1067L20.3386 12.7253H20.34ZM23.496 17.604L23.5053 17.6933V19.5627C23.5056 19.7702 23.4574 19.975 23.3646 20.1606C23.2717 20.3463 23.1369 20.5077 22.9707 20.632L22.8386 20.7187L21.2186 21.6533C21.1644 21.6848 21.1035 21.703 21.0409 21.7066C20.9783 21.7102 20.9157 21.699 20.8583 21.674C20.8008 21.6489 20.75 21.6107 20.71 21.5624C20.67 21.5142 20.6419 21.4571 20.628 21.396L20.6186 21.3067V19.436C20.6188 19.2289 20.6672 19.0247 20.76 18.8395C20.8528 18.6544 20.9875 18.4934 21.1533 18.3693L21.2866 18.2813L22.9053 17.3467C22.9596 17.3152 23.0204 17.2969 23.083 17.2934C23.1457 17.2898 23.2082 17.3009 23.2657 17.326C23.3232 17.351 23.374 17.3892 23.414 17.4375C23.454 17.4858 23.4821 17.5428 23.496 17.604ZM9.09332 17.3467L10.7133 18.2813C10.916 18.3983 11.0843 18.5667 11.2013 18.7693C11.3184 18.972 11.38 19.2019 11.38 19.436V21.3067C11.38 21.3769 11.3616 21.4459 11.3265 21.5067C11.2914 21.5676 11.2409 21.6181 11.1801 21.6533C11.1193 21.6884 11.0503 21.7069 10.98 21.7069C10.9098 21.7069 10.8408 21.6884 10.78 21.6533L9.15998 20.72C8.9571 20.6029 8.78866 20.4343 8.67162 20.2314C8.55459 20.0285 8.49309 19.7983 8.49332 19.564V17.6933C8.49327 17.6231 8.51172 17.5541 8.54681 17.4932C8.5819 17.4324 8.63239 17.3819 8.6932 17.3467C8.75402 17.3116 8.82302 17.2931 8.89325 17.2931C8.96349 17.2931 9.03249 17.3115 9.09332 17.3467ZM24.3306 7.27066L26.0573 8.26799C26.564 8.56054 26.9848 8.98132 27.2774 9.48804C27.5699 9.99475 27.724 10.5695 27.724 11.1547V13.0787C27.724 13.4323 27.5835 13.7714 27.3335 14.0215C27.0834 14.2715 26.7443 14.412 26.3906 14.412C26.037 14.412 25.6979 14.2715 25.4478 14.0215C25.1978 13.7714 25.0573 13.4323 25.0573 13.0787V11.1547C25.0573 11.0376 25.0265 10.9227 24.968 10.8213C24.9095 10.72 24.8253 10.6358 24.724 10.5773L22.9973 9.57999C22.6936 9.40192 22.4726 9.11094 22.3826 8.77055C22.2926 8.43015 22.3409 8.06798 22.517 7.76306C22.693 7.45815 22.9825 7.23524 23.3223 7.14299C23.6621 7.05074 24.0246 7.09663 24.3306 7.27066ZM9.42798 7.79332C9.60479 8.09956 9.6527 8.46349 9.56118 8.80506C9.46966 9.14662 9.24621 9.43784 8.93998 9.61466L7.27332 10.5773C7.17197 10.6358 7.08781 10.72 7.0293 10.8213C6.97079 10.9227 6.93999 11.0376 6.93998 11.1547V13.0787C6.93998 13.4323 6.79951 13.7714 6.54946 14.0215C6.29941 14.2715 5.96027 14.412 5.60665 14.412C5.25303 14.412 4.91389 14.2715 4.66384 14.0215C4.41379 13.7714 4.27332 13.4323 4.27332 13.0787V11.1547C4.27323 10.5692 4.42735 9.99403 4.72016 9.48705C5.01298 8.98007 5.43415 8.55915 5.94132 8.26666L7.60798 7.30399C7.91422 7.12719 8.27815 7.07927 8.61971 7.17079C8.96128 7.26231 9.2525 7.48576 9.42932 7.79199L9.42798 7.79332ZM16.6666 7.71999L18.2866 8.65466C18.3476 8.68973 18.3982 8.74024 18.4334 8.8011C18.4686 8.86196 18.4871 8.93102 18.4871 9.00132C18.4871 9.07162 18.4686 9.14069 18.4334 9.20155C18.3982 9.26241 18.3476 9.31292 18.2866 9.34799L16.6666 10.28C16.464 10.397 16.234 10.4586 16 10.4586C15.7659 10.4586 15.536 10.397 15.3333 10.28L13.7133 9.34532C13.6524 9.31025 13.6018 9.25974 13.5666 9.19888C13.5314 9.13802 13.5129 9.06896 13.5129 8.99866C13.5129 8.92835 13.5314 8.85929 13.5666 8.79843C13.6018 8.73757 13.6524 8.68706 13.7133 8.65199L15.3333 7.71999C15.536 7.60297 15.7659 7.54136 16 7.54136C16.234 7.54136 16.464 7.60297 16.6666 7.71999ZM17.6666 3.42399L21.7253 5.76666C22.0317 5.94347 22.2554 6.23476 22.347 6.57645C22.4386 6.91814 22.3908 7.28224 22.214 7.58866C22.0372 7.89507 21.7459 8.1187 21.4042 8.21034C21.0625 8.30198 20.6984 8.25413 20.392 8.07732L16.3333 5.73199C16.232 5.67348 16.117 5.64267 16 5.64267C15.883 5.64267 15.768 5.67348 15.6666 5.73199L11.608 8.07466C11.4563 8.16359 11.2885 8.22163 11.1143 8.24545C10.9401 8.26927 10.7629 8.2584 10.5929 8.21346C10.4229 8.16851 10.2634 8.09038 10.1237 7.98357C9.98406 7.87676 9.86689 7.74337 9.77896 7.59109C9.69104 7.43881 9.63411 7.27064 9.61145 7.09627C9.58878 6.9219 9.60083 6.74476 9.6469 6.57507C9.69297 6.40537 9.77216 6.24646 9.87989 6.10749C9.98763 5.96852 10.1218 5.85223 10.2746 5.76532L14.3333 3.42266C14.84 3.13009 15.4149 2.97607 16 2.97607C16.5851 2.97607 17.1599 3.13009 17.6666 3.42266V3.42399Z" fill="white"/>
</g>
<defs>
<clipPath id="clip0_1_188">
<rect width="32" height="32" fill="white"/>
</clipPath>
</defs>
</svg>
